<svg data-v-5f19e91b="" xmlns="http://www.w3.org/2000/svg" width="458" height="12" viewBox="0 0 458 12"><!----> <!----> <!----> <g data-v-5f19e91b="" id="293e710f-015e-981f-9459-046dc3e1c18f" fill="white" transform="matrix(4.366812229156494,0,0,4.366812229156494,28.668893814086914,-35.861881256103516)"><path d="M7.56 11.41L7.56 11.41Q7.56 12.64 6.73 13.33L6.73 13.33L6.73 13.33Q5.91 14.01 4.63 14.13L4.63 14.13L4.63 15.82L3.79 15.82L3.79 14.14L3.79 14.14Q1.55 14.04 0.73 12.49L0.73 12.49L1.71 12.00L1.71 12.00Q1.97 12.54 2.50 12.86L2.50 12.86L2.50 12.86Q3.02 13.17 3.79 13.23L3.79 13.23L3.79 9.30L3.79 9.30Q2.63 8.85 1.88 8.20L1.88 8.20L1.88 8.20Q1.13 7.55 1.13 6.48L1.13 6.48L1.13 6.48Q1.13 5.40 1.88 4.83L1.88 4.83L1.88 4.83Q2.63 4.26 3.79 4.14L3.79 4.14L3.79 2.80L4.63 2.80L4.63 4.13L4.63 4.13Q5.56 4.17 6.29 4.58L6.29 4.58L6.29 4.58Q7.01 4.98 7.39 5.77L7.39 5.77L6.44 6.26L6.44 6.26Q6.22 5.74 5.74 5.42L5.74 5.42L5.74 5.42Q5.26 5.11 4.63 5.04L4.63 5.04L4.63 8.57L4.63 8.57Q5.56 8.93 6.16 9.27L6.16 9.27L6.16 9.27Q6.76 9.60 7.16 10.13L7.16 10.13L7.16 10.13Q7.56 10.65 7.56 11.41L7.56 11.41ZM2.13 6.48L2.13 6.48Q2.13 7.10 2.58 7.51L2.58 7.51L2.58 7.51Q3.02 7.92 3.79 8.25L3.79 8.25L3.79 5.05L3.79 5.05Q3.07 5.12 2.60 5.47L2.60 5.47L2.60 5.47Q2.13 5.81 2.13 6.48L2.13 6.48ZM4.63 13.22L4.63 13.22Q5.49 13.12 6.03 12.67L6.03 12.67L6.03 12.67Q6.58 12.22 6.58 11.44L6.58 11.44L6.58 11.44Q6.58 10.77 6.09 10.37L6.09 10.37L6.09 10.37Q5.60 9.97 4.63 9.60L4.63 9.60L4.63 13.22ZM13.06 7.84L13.06 7.84Q13.06 9.41 11.68 9.56L11.68 9.56L11.68 9.56Q12.28 9.65 12.67 10.02L12.67 10.02L12.67 10.02Q13.06 10.40 13.06 11.30L13.06 11.30L13.06 13.68L13.06 13.68Q13.06 14.67 13.48 15.10L13.48 15.10L13.48 15.10Q13.90 15.53 14.83 15.53L14.83 15.53L14.94 15.53L14.94 16.44L14.73 16.44L14.73 16.44Q13.50 16.44 12.78 15.77L12.78 15.77L12.78 15.77Q12.07 15.11 12.07 13.89L12.07 13.89L12.07 11.80L12.07 11.80Q12.07 10.86 11.83 10.44L11.83 10.44L11.83 10.44Q11.59 10.02 11.00 10.02L11.00 10.02L10.92 10.02L10.92 9.11L11.00 9.11L11.00 9.11Q11.59 9.11 11.83 8.69L11.83 8.69L11.83 8.69Q12.07 8.27 12.07 7.34L12.07 7.34L12.07 5.25L12.07 5.25Q12.07 4.03 12.78 3.37L12.78 3.37L12.78 3.37Q13.50 2.70 14.73 2.70L14.73 2.70L14.94 2.70L14.94 3.61L14.83 3.61L14.83 3.61Q13.90 3.61 13.48 4.04L13.48 4.04L13.48 4.04Q13.06 4.47 13.06 5.46L13.06 5.46L13.06 7.84ZM21.42 6.83L21.42 6.83Q22.82 6.83 23.58 7.79L23.58 7.79L23.58 7.79Q24.33 8.75 24.33 10.33L24.33 10.33L24.33 10.33Q24.33 10.60 24.32 10.74L24.32 10.74L19.29 10.74L19.29 10.74Q19.35 12.03 19.89 12.63L19.89 12.63L19.89 12.63Q20.43 13.24 21.35 13.24L21.35 13.24L21.35 13.24Q21.99 13.24 22.48 12.95L22.48 12.95L22.48 12.95Q22.96 12.66 23.25 12.18L23.25 12.18L24.16 12.67L24.16 12.67Q23.74 13.34 23.01 13.75L23.01 13.75L23.01 13.75Q22.27 14.15 21.38 14.15L21.38 14.15L21.38 14.15Q20.52 14.15 19.80 13.78L19.80 13.78L19.80 13.78Q19.08 13.40 18.65 12.57L18.65 12.57L18.65 12.57Q18.21 11.75 18.21 10.49L18.21 10.49L18.21 10.49Q18.21 9.21 18.66 8.39L18.66 8.39L18.66 8.39Q19.11 7.57 19.84 7.20L19.84 7.20L19.84 7.20Q20.57 6.83 21.42 6.83L21.42 6.83ZM19.33 9.84L23.21 9.84L23.21 9.84Q23.16 8.88 22.71 8.31L22.71 8.31L22.71 8.31Q22.26 7.74 21.38 7.74L21.38 7.74L21.38 7.74Q20.57 7.74 20.01 8.24L20.01 8.24L20.01 8.24Q19.46 8.74 19.33 9.84L19.33 9.84ZM30.14 6.85L30.14 6.85Q31.32 6.85 31.86 7.55L31.86 7.55L31.86 7.55Q32.41 8.25 32.41 9.80L32.41 9.80L32.41 14L31.40 14L31.40 10.14L31.40 10.14Q31.40 9.21 31.28 8.71L31.28 8.71L31.28 8.71Q31.15 8.20 30.84 7.98L30.84 7.98L30.84 7.98Q30.52 7.76 29.92 7.76L29.92 7.76L29.92 7.76Q29.39 7.76 28.91 8.02L28.91 8.02L28.91 8.02Q28.43 8.27 28.13 8.65L28.13 8.65L28.13 8.65Q27.82 9.03 27.75 9.35L27.75 9.35L27.75 14L26.74 14L26.74 9.17L26.74 7L27.57 7L27.71 8.06L27.71 8.06Q28.10 7.50 28.73 7.17L28.73 7.17L28.73 7.17Q29.36 6.85 30.14 6.85L30.14 6.85ZM39.48 7L40.53 7L38.82 14L36.83 14L35.13 7L36.18 7L37.58 13.10L38.08 13.10L39.48 7ZM48.58 7L49.56 7L48.68 14L47.42 14L46.17 8.81L44.93 14L43.67 14L42.78 7L43.76 7L44.41 12.85L45.68 7L46.66 7L47.94 12.85L48.58 7ZM58.20 13.51L57.51 14.17L56.64 13.30L56.64 13.30Q56.27 13.65 55.67 13.90L55.67 13.90L55.67 13.90Q55.08 14.15 54.26 14.15L54.26 14.15L54.26 14.15Q52.91 14.15 52.23 13.59L52.23 13.59L52.23 13.59Q51.55 13.02 51.55 11.86L51.55 11.86L51.55 11.86Q51.55 10.68 52.27 10.13L52.27 10.13L52.27 10.13Q52.99 9.58 54.57 9.58L54.57 9.58L56.35 9.58L56.35 8.97L56.35 8.97Q56.35 8.32 55.90 8.03L55.90 8.03L55.90 8.03Q55.45 7.74 54.59 7.74L54.59 7.74L54.59 7.74Q53.24 7.74 52.70 8.36L52.70 8.36L52.01 7.69L52.01 7.69Q52.39 7.31 53.07 7.07L53.07 7.07L53.07 7.07Q53.76 6.83 54.68 6.83L54.68 6.83L54.68 6.83Q55.90 6.83 56.62 7.32L56.62 7.32L56.62 7.32Q57.34 7.81 57.34 8.75L57.34 8.75L57.34 12.66L58.20 13.51ZM52.56 11.86L52.56 11.86Q52.56 12.63 53.02 12.94L53.02 12.94L53.02 12.94Q53.49 13.26 54.49 13.26L54.49 13.26L54.49 13.26Q55.03 13.26 55.55 13.02L55.55 13.02L55.55 13.02Q56.07 12.78 56.35 12.45L56.35 12.45L56.35 10.47L55.02 10.47L55.02 10.47Q54.03 10.47 53.51 10.58L53.51 10.58L53.51 10.58Q52.99 10.68 52.77 10.98L52.77 10.98L52.77 10.98Q52.56 11.27 52.56 11.86L52.56 11.86ZM65.44 7.78L65.44 7.78Q64.61 7.78 64.03 8.27L64.03 8.27L64.03 8.27Q63.45 8.76 63.24 9.39L63.24 9.39L63.24 13.10L65.69 13.10L65.69 14L60.24 14L60.24 13.10L62.24 13.10L62.24 7.90L60.24 7.90L60.24 7L63.06 7L63.20 8.06L63.20 8.06Q63.59 7.49 64.22 7.16L64.22 7.16L64.22 7.16Q64.85 6.83 65.65 6.83L65.65 6.83L65.65 6.83Q66.25 6.83 66.74 7.06L66.74 7.06L66.40 7.97L66.40 7.97Q66.33 7.91 66.08 7.85L66.08 7.85L66.08 7.85Q65.83 7.78 65.44 7.78L65.44 7.78ZM73.02 2.80L74.03 2.80L74.03 14L73.16 14L73.02 13.01L73.02 12.98L73.02 12.98Q72.67 13.52 72.13 13.84L72.13 13.84L72.13 13.84Q71.58 14.15 70.87 14.15L70.87 14.15L70.87 14.15Q69.59 14.15 68.86 13.24L68.86 13.24L68.86 13.24Q68.12 12.33 68.12 10.49L68.12 10.49L68.12 10.49Q68.12 6.85 70.73 6.85L70.73 6.85L70.73 6.85Q71.47 6.85 72.06 7.16L72.06 7.16L72.06 7.16Q72.66 7.48 73.02 8.04L73.02 8.04L73.02 2.80ZM71.08 13.24L71.08 13.24Q71.85 13.24 72.37 12.69L72.37 12.69L72.37 12.69Q72.90 12.14 73.02 11.47L73.02 11.47L73.02 9.45L73.02 9.45Q72.81 8.82 72.26 8.29L72.26 8.29L72.26 8.29Q71.71 7.76 70.94 7.76L70.94 7.76L70.94 7.76Q69.97 7.76 69.55 8.39L69.55 8.39L69.55 8.39Q69.12 9.02 69.12 10.49L69.12 10.49L69.12 10.49Q69.12 11.93 69.61 12.59L69.61 12.59L69.61 12.59Q70.10 13.24 71.08 13.24L71.08 13.24ZM80.22 6.83L80.22 6.83Q81.62 6.83 82.38 7.79L82.38 7.79L82.38 7.79Q83.13 8.75 83.13 10.33L83.13 10.33L83.13 10.33Q83.13 10.60 83.12 10.74L83.12 10.74L78.09 10.74L78.09 10.74Q78.15 12.03 78.69 12.63L78.69 12.63L78.69 12.63Q79.23 13.24 80.15 13.24L80.15 13.24L80.15 13.24Q80.79 13.24 81.28 12.95L81.28 12.95L81.28 12.95Q81.76 12.66 82.05 12.18L82.05 12.18L82.96 12.67L82.96 12.67Q82.54 13.34 81.81 13.75L81.81 13.75L81.81 13.75Q81.07 14.15 80.18 14.15L80.18 14.15L80.18 14.15Q79.32 14.15 78.60 13.78L78.60 13.78L78.60 13.78Q77.88 13.40 77.45 12.57L77.45 12.57L77.45 12.57Q77.01 11.75 77.01 10.49L77.01 10.49L77.01 10.49Q77.01 9.21 77.46 8.39L77.46 8.39L77.46 8.39Q77.91 7.57 78.64 7.20L78.64 7.20L78.64 7.20Q79.37 6.83 80.22 6.83L80.22 6.83ZM78.13 9.84L82.01 9.84L82.01 9.84Q81.96 8.88 81.51 8.31L81.51 8.31L81.51 8.31Q81.06 7.74 80.18 7.74L80.18 7.74L80.18 7.74Q79.37 7.74 78.81 8.24L78.81 8.24L78.81 8.24Q78.26 8.74 78.13 9.84L78.13 9.84ZM88.94 6.85L88.94 6.85Q90.12 6.85 90.66 7.55L90.66 7.55L90.66 7.55Q91.21 8.25 91.21 9.80L91.21 9.80L91.21 14L90.20 14L90.20 10.14L90.20 10.14Q90.20 9.21 90.08 8.71L90.08 8.71L90.08 8.71Q89.95 8.20 89.64 7.98L89.64 7.98L89.64 7.98Q89.32 7.76 88.72 7.76L88.72 7.76L88.72 7.76Q88.19 7.76 87.71 8.02L87.71 8.02L87.71 8.02Q87.23 8.27 86.93 8.65L86.93 8.65L86.93 8.65Q86.62 9.03 86.55 9.35L86.55 9.35L86.55 14L85.54 14L85.54 9.17L85.54 7L86.37 7L86.51 8.06L86.51 8.06Q86.90 7.50 87.53 7.17L87.53 7.17L87.53 7.17Q88.16 6.85 88.94 6.85L88.94 6.85ZM96.07 7.84L96.07 7.84Q96.07 9.41 97.45 9.56L97.45 9.56L97.45 9.56Q96.85 9.65 96.46 10.02L96.46 10.02L96.46 10.02Q96.07 10.40 96.07 11.30L96.07 11.30L96.07 13.68L96.07 13.68Q96.07 14.67 95.65 15.10L95.65 15.10L95.65 15.10Q95.23 15.53 94.30 15.53L94.30 15.53L94.19 15.53L94.19 16.44L94.40 16.44L94.40 16.44Q95.63 16.44 96.35 15.77L96.35 15.77L96.35 15.77Q97.06 15.11 97.06 13.89L97.06 13.89L97.06 11.80L97.06 11.80Q97.06 10.86 97.30 10.44L97.30 10.44L97.30 10.44Q97.54 10.02 98.13 10.02L98.13 10.02L98.21 10.02L98.21 9.11L98.13 9.11L98.13 9.11Q97.54 9.11 97.30 8.69L97.30 8.69L97.30 8.69Q97.06 8.27 97.06 7.34L97.06 7.34L97.06 5.25L97.06 5.25Q97.06 4.03 96.35 3.37L96.35 3.37L96.35 3.37Q95.63 2.70 94.40 2.70L94.40 2.70L94.19 2.70L94.19 3.61L94.30 3.61L94.30 3.61Q95.23 3.61 95.65 4.04L95.65 4.04L95.65 4.04Q96.07 4.47 96.07 5.46L96.07 5.46L96.07 7.84Z"></path></g> <!----> <g data-v-5f19e91b="" id="31f6016d-55c1-ab3d-6bd2-ccd1b720559f" transform="matrix(0.3629666566848755,0,0,0.3629666566848755,-3.8590331077575684,-1.9386335611343384)" stroke="none" fill="white"><path stroke-width="0.2835" stroke-miterlimit="10" d="M40.457,7.833H17.542  c-2.693,0-4.875,2.183-4.875,4.875v22.916c0,2.692,2.183,4.876,4.875,4.876h22.915c2.693,0,4.876-2.184,4.876-4.876V12.708  C45.333,10.016,43.15,7.833,40.457,7.833z M29.93,32.813v2.202h-2.251v-2.202c-3.107-0.318-4.722-1.664-4.722-4.771v-0.661h4.404  v0.464c0,1.444,0.612,1.934,1.517,1.934c0.955,0,1.468-0.709,1.468-1.59c0-3.377-7.145-1.713-7.145-7.731  c0-3.059,1.493-4.82,4.478-5.31v-1.419h2.251v1.419c3.254,0.318,4.648,1.884,4.648,5.236H30.32v-0.367  c0-0.979-0.416-1.835-1.296-1.835c-0.979,0-1.419,0.758-1.419,1.517c0,3.474,7.438,1.566,7.438,7.878  C35.043,30.904,33.281,32.446,29.93,32.813z"></path></g></svg>