<svg data-v-1084b650="" xmlns="http://www.w3.org/2000/svg" viewBox="0 0 300 300"><!----> <!----> <rect data-v-1084b650="" fill="#002b36" x="0" y="0" width="300px" height="300px" class="logo-background-square"></rect> <!----> <!----> <g data-v-1084b650="" id="55a0f905-69f9-709d-592c-4dce96740e4e" fill="#2aa198" stroke="#2aa198" transform="matrix(1,0,0,1,0,9.483612060546875)"><svg xmlns="http://www.w3.org/2000/svg" xmlns:xlink="http://www.w3.org/1999/xlink" version="1.1" x="0px" y="0px" viewBox="0 0 58 52" enable-background="new 0 0 58 52" xml:space="preserve"><path stroke-width="0.2835" stroke-miterlimit="10" d="M40.457,7.833H17.542  c-2.693,0-4.875,2.183-4.875,4.875v22.916c0,2.692,2.183,4.876,4.875,4.876h22.915c2.693,0,4.876-2.184,4.876-4.876V12.708  C45.333,10.016,43.15,7.833,40.457,7.833z M29.93,32.813v2.202h-2.251v-2.202c-3.107-0.318-4.722-1.664-4.722-4.771v-0.661h4.404  v0.464c0,1.444,0.612,1.934,1.517,1.934c0.955,0,1.468-0.709,1.468-1.59c0-3.377-7.145-1.713-7.145-7.731  c0-3.059,1.493-4.82,4.478-5.31v-1.419h2.251v1.419c3.254,0.318,4.648,1.884,4.648,5.236H30.32v-0.367  c0-0.979-0.416-1.835-1.296-1.835c-0.979,0-1.419,0.758-1.419,1.517c0,3.474,7.438,1.566,7.438,7.878  C35.043,30.904,33.281,32.446,29.93,32.813z"></path></svg></g></svg>